<?xml version="1.0" standalone="no"?>
<!DOCTYPE svg PUBLIC "-//W3C//DTD SVG 20010904//EN"
 "http://www.w3.org/TR/2001/REC-SVG-20010904/DTD/svg10.dtd">
<svg version="1.0" xmlns="http://www.w3.org/2000/svg"
 width="503.000000pt" height="503.000000pt" viewBox="0 0 503.000000 503.000000"
 preserveAspectRatio="xMidYMid meet">
<metadata>
Created by potrace 1.11, written by Peter Selinger 2001-2013
</metadata>
<g transform="translate(0.000000,503.000000) scale(0.100000,-0.100000)"
fill="#000000" stroke="none">
<path d="M2817 4182 c-23 -26 -21 -55 6 -80 27 -26 54 -28 84 -7 20 14 22 14
25 -7 2 -13 8 -22 14 -21 5 1 11 -15 12 -35 l2 -37 -24 27 c-27 30 -35 28 -29
-7 6 -28 22 -36 85 -41 45 -4 73 8 43 20 -8 3 -15 1 -15 -4 0 -24 -49 11 -50
35 0 16 72 35 87 23 9 -7 13 -7 13 0 0 6 -4 14 -10 17 -5 3 -7 18 -4 33 8 41
-28 76 -70 68 -17 -4 -40 -8 -51 -10 -11 -1 -20 -7 -20 -12 0 -5 -7 -19 -16
-31 -11 -15 -19 -19 -29 -12 -12 7 -11 9 5 9 17 0 17 2 5 10 -11 7 -11 10 -2
10 7 0 10 5 6 12 -4 6 -3 8 3 5 6 -4 16 0 23 8 32 38 -60 64 -93 27z m148 -72
c-7 -31 -15 -35 -19 -8 -1 7 -6 19 -10 27 -6 9 -5 12 2 7 6 -3 14 -1 17 5 12
18 17 2 10 -31z"/>
<path d="M2462 4174 c-27 -18 -29 -55 -4 -77 36 -33 92 -11 92 36 0 50 -45 71
-88 41z m67 -20 c9 -20 9 -25 -1 -22 -7 3 -13 9 -13 14 0 5 -4 15 -8 22 -5 6
-4 12 1 12 5 0 14 -12 21 -26z m-35 10 c9 -3 13 -10 10 -15 -3 -6 0 -16 6 -24
9 -11 9 -15 1 -16 -35 -4 -46 -2 -43 9 1 7 -3 12 -10 12 -6 0 -8 3 -5 7 4 3
16 -2 27 -12 23 -21 28 -4 5 19 -24 23 -20 31 9 20z"/>
<path d="M2759 4166 c13 -15 5 -46 -12 -46 -8 0 -7 -4 1 -12 8 -8 15 -8 27 2
18 15 20 41 3 58 -17 17 -33 15 -19 -2z"/>
<path d="M2605 4141 c6 -11 4 -13 -10 -7 -18 6 -18 6 -2 -12 9 -10 14 -22 10
-25 -3 -4 -1 -7 5 -7 6 0 18 10 26 22 9 12 16 18 16 12 0 -6 -9 -19 -20 -29
-11 -10 -18 -20 -15 -23 3 -3 14 3 25 13 25 22 28 60 4 51 -9 -4 -24 -1 -32 6
-13 11 -14 11 -7 -1z"/>
<path d="M2560 4096 c0 -3 9 -10 20 -16 11 -6 20 -8 20 -6 0 3 -9 10 -20 16
-11 6 -20 8 -20 6z"/>
<path d="M2345 4049 c-4 -11 -4 -23 -1 -26 9 -9 -15 -34 -25 -27 -5 3 -9 0 -9
-5 0 -6 -3 -10 -7 -10 -5 1 -15 1 -23 0 -12 -1 -12 -4 2 -18 21 -21 74 -19 99
3 20 18 27 74 9 74 -5 0 -10 -4 -10 -10 0 -5 -5 -10 -11 -10 -6 0 -9 9 -6 20
7 27 -10 36 -18 9z"/>
<path d="M2576 4041 c-10 -16 5 -42 23 -39 21 4 21 42 -1 46 -9 2 -19 -1 -22
-7z"/>
<path d="M2007 4031 c-62 -9 -86 -44 -54 -83 13 -17 52 -34 42 -18 -3 5 6 12
20 16 14 3 25 12 25 20 0 8 8 14 17 14 9 0 13 3 10 7 -4 3 -1 13 6 21 10 13 9
15 -8 8 -16 -6 -18 -5 -7 5 9 10 15 10 24 1 7 -7 8 -12 3 -12 -6 0 -4 -4 4 -9
11 -7 7 -12 -15 -25 -25 -13 -26 -15 -6 -13 36 5 47 22 34 52 -12 26 -15 27
-95 16z"/>
<path d="M2791 4016 c-6 -7 -8 -21 -5 -30 9 -24 58 -17 62 9 l4 20 -16 -20
c-14 -18 -15 -18 -16 -2 0 9 -5 17 -11 17 -5 0 -7 5 -4 10 9 15 -1 12 -14 -4z"/>
<path d="M3158 4016 c-15 -11 -15 -14 6 -39 25 -29 51 -35 59 -14 12 33 -37
73 -65 53z"/>
<path d="M3050 4010 c0 -5 5 -10 10 -10 6 0 10 5 10 10 0 6 -4 10 -10 10 -5 0
-10 -4 -10 -10z"/>
<path d="M3322 3988 c-7 -7 -12 -18 -12 -25 0 -18 29 -16 37 3 8 21 -10 37
-25 22z"/>
<path d="M2637 3973 c-24 -23 6 -91 35 -80 7 3 4 6 -7 6 -16 1 -17 3 -6 10 9
6 22 6 33 0 24 -13 35 13 20 47 -8 17 -20 24 -40 24 -16 0 -32 -3 -35 -7z"/>
<path d="M2554 3946 c-15 -38 22 -74 49 -47 7 7 4 8 -10 5 -12 -3 -24 -1 -27
5 -4 6 -2 11 4 11 7 0 10 6 7 13 -3 8 1 14 9 14 7 0 11 -4 8 -9 -3 -4 0 -8 6
-8 7 0 10 6 8 13 -7 18 -47 21 -54 3z"/>
<path d="M2944 3951 c3 -5 -1 -8 -10 -7 -9 0 -21 -7 -27 -16 -9 -14 -7 -22 10
-39 42 -42 100 2 66 50 -13 20 -50 31 -39 12z"/>
<path d="M1890 3910 c-24 -44 38 -83 70 -45 10 12 10 21 2 40 -14 31 -56 34
-72 5z"/>
<path d="M3217 3923 c-3 -5 10 -8 28 -8 18 0 31 3 28 8 -2 4 -15 7 -28 7 -13
0 -26 -3 -28 -7z"/>
<path d="M2262 3915 c4 -6 0 -19 -8 -30 -13 -17 -16 -18 -24 -5 -5 8 -10 10
-10 4 0 -20 24 -32 48 -23 26 10 29 31 5 50 -9 8 -14 9 -11 4z"/>
<path d="M1711 3889 c-17 -10 -31 -21 -31 -24 0 -4 10 1 22 9 12 9 29 16 37
16 22 0 40 -32 31 -56 -21 -53 59 -90 82 -38 11 23 10 28 -12 45 -14 10 -34
27 -45 37 -31 29 -50 32 -84 11z"/>
<path d="M3076 3888 c10 -14 21 -24 23 -22 3 3 -6 15 -18 27 l-24 22 19 -27z"/>
<path d="M3593 3899 c-16 -16 -5 -39 19 -39 14 0 19 6 16 22 -4 25 -19 33 -35
17z"/>
<path d="M3365 3889 c-10 -16 3 -56 20 -63 12 -4 14 0 9 19 -4 15 -1 32 6 40
10 12 9 15 -8 15 -12 0 -24 -5 -27 -11z"/>
<path d="M2310 3861 c-13 -25 -13 -58 0 -66 6 -3 10 0 10 9 0 8 13 25 29 39
17 14 27 28 24 31 -14 13 -53 5 -63 -13z"/>
<path d="M2155 3860 c-3 -5 -13 -6 -22 -3 -13 5 -15 2 -11 -15 4 -14 2 -20 -5
-15 -7 4 -8 0 -4 -11 5 -13 3 -17 -7 -13 -10 4 -13 1 -10 -8 8 -21 30 -25 51
-10 10 8 26 15 35 15 9 0 20 4 23 10 3 5 0 7 -7 5 -8 -3 -22 1 -33 9 -20 15
-20 15 0 30 11 8 15 16 8 16 -6 0 -14 -4 -18 -10z"/>
<path d="M2570 3850 c-24 -24 -25 -38 -4 -68 15 -22 38 -27 69 -16 14 6 13 8
-5 21 -11 8 -20 21 -20 29 0 8 -5 14 -11 14 -6 0 -8 9 -4 20 3 11 4 20 1 20
-3 0 -15 -9 -26 -20z"/>
<path d="M2792 3848 c-6 -7 -12 -26 -14 -43 -2 -25 -7 -29 -25 -27 -15 2 -23
-2 -23 -12 0 -8 -12 -27 -26 -41 -21 -21 -25 -32 -19 -53 4 -15 7 -46 6 -69
-1 -32 4 -45 20 -57 41 -28 91 20 72 69 -4 11 0 21 10 27 18 10 23 63 7 73
-14 9 19 55 35 49 12 -5 55 31 55 46 0 3 -7 16 -16 28 -17 24 -65 30 -82 10z
m-40 -168 c-4 -3 -10 -9 -15 -15 -4 -6 -7 -1 -5 10 2 14 -2 19 -14 17 -15 -2
-16 3 -9 37 1 2 12 -7 25 -20 14 -13 22 -26 18 -29z"/>
<path d="M3255 3836 c-14 -10 -17 -21 -12 -49 4 -29 2 -36 -15 -40 -14 -4 -19
-12 -16 -33 6 -55 69 -58 76 -3 5 40 24 79 38 79 20 0 17 24 -4 43 -22 21 -42
21 -67 3z"/>
<path d="M3079 3823 c-13 -16 -12 -17 4 -4 9 7 17 15 17 17 0 8 -8 3 -21 -13z"/>
<path d="M3186 3815 c-4 -14 -11 -23 -16 -20 -5 3 -11 1 -15 -5 -3 -5 3 -10
14 -10 19 0 41 26 41 49 0 21 -18 10 -24 -14z"/>
<path d="M3750 3836 c0 -2 7 -7 16 -10 8 -3 12 -2 9 4 -6 10 -25 14 -25 6z"/>
<path d="M2015 3820 c27 -12 35 -12 35 0 0 6 -12 10 -27 9 -25 0 -26 -1 -8 -9z"/>
<path d="M3720 3819 c0 -5 5 -7 10 -4 6 3 10 8 10 11 0 2 -4 4 -10 4 -5 0 -10
-5 -10 -11z"/>
<path d="M1980 3810 c0 -5 5 -10 11 -10 5 0 7 5 4 10 -3 6 -8 10 -11 10 -2 0
-4 -4 -4 -10z"/>
<path d="M3454 3805 c-3 -8 -3 -19 1 -25 10 -16 38 -8 41 13 1 9 -2 15 -7 11
-5 -3 -9 0 -9 5 0 16 -20 13 -26 -4z"/>
<path d="M3538 3813 c-27 -7 -34 -50 -12 -74 25 -28 74 -22 90 10 14 28 9 47
-14 54 -9 3 -24 7 -32 10 -8 2 -23 3 -32 0z"/>
<path d="M3790 3811 c0 -5 5 -13 10 -16 6 -3 10 -2 10 4 0 5 -4 13 -10 16 -5
3 -10 2 -10 -4z"/>
<path d="M2057 3796 c-3 -7 -1 -18 5 -24 12 -12 1 -35 -13 -27 -5 4 -9 1 -9
-4 0 -6 -7 -11 -16 -11 -8 0 -12 4 -9 10 4 6 -1 7 -11 3 -13 -5 -15 -3 -9 7 5
9 4 11 -3 6 -8 -5 -12 1 -13 16 -1 18 -2 19 -6 5 -6 -22 23 -57 46 -57 28 0
61 30 61 55 0 27 -15 41 -23 21z"/>
<path d="M2455 3800 c-16 -7 -17 -9 -3 -9 9 -1 20 4 23 9 7 11 7 11 -20 0z"/>
<path d="M2484 3782 c2 -4 -7 -13 -21 -19 -21 -10 -24 -10 -19 3 3 9 1 12 -4
9 -14 -9 -13 -48 2 -63 18 -18 56 -14 78 8 28 28 25 46 -10 59 -17 5 -29 7
-26 3z"/>
<path d="M1555 3755 c-31 -30 -32 -68 -3 -94 47 -45 102 -39 116 12 6 17 13
39 16 47 4 9 -2 25 -14 38 -29 31 -83 30 -115 -3z m78 -21 c1 -4 -8 -9 -20
-10 -13 -2 -23 1 -23 6 0 6 7 10 15 10 8 0 15 6 16 13 0 9 2 9 6 0 2 -7 5 -16
6 -19z m-56 -6 c-3 -8 -6 -5 -6 6 -1 11 2 17 5 13 3 -3 4 -12 1 -19z"/>
<path d="M3709 3752 c11 -21 -3 -42 -29 -42 -26 0 -60 -30 -60 -53 0 -12 7
-31 15 -41 13 -18 17 -18 42 -5 15 8 36 22 46 32 10 10 22 15 26 12 15 -9 34
24 27 48 -4 16 0 26 14 35 11 7 20 17 20 24 0 6 -13 -1 -30 -17 -22 -22 -27
-32 -19 -42 6 -7 8 -20 5 -29 -5 -14 -7 -14 -22 0 -8 9 -20 14 -25 11 -5 -4
-9 -2 -9 3 0 17 13 22 28 9 13 -10 14 -9 7 3 -13 20 -15 41 -5 35 5 -3 12 0
16 6 4 7 3 9 -4 5 -6 -3 -17 1 -25 9 -21 21 -30 19 -18 -3z"/>
<path d="M2367 3749 c7 -7 15 -10 18 -7 3 3 -2 9 -12 12 -14 6 -15 5 -6 -5z"/>
<path d="M2643 3745 c-3 -9 -3 -19 1 -22 3 -4 6 1 6 10 0 8 6 18 13 20 9 4 9
6 -1 6 -7 1 -15 -6 -19 -14z"/>
<path d="M2220 3735 c-16 -19 -1 -19 24 0 16 12 17 15 4 15 -8 0 -21 -7 -28
-15z"/>
<path d="M2270 3740 c0 -5 5 -10 10 -10 6 0 10 5 10 10 0 6 -4 10 -10 10 -5 0
-10 -4 -10 -10z"/>
<path d="M1795 3724 c-21 -21 -19 -34 6 -34 15 0 19 4 15 16 -5 13 -4 14 7 6
8 -7 16 -11 18 -9 2 1 -1 -2 -7 -8 -6 -5 -9 -16 -7 -22 3 -7 0 -13 -6 -13 -6
0 -11 5 -11 10 0 6 -4 10 -9 10 -14 0 -22 -62 -10 -76 18 -21 57 -17 64 6 4
13 18 23 36 27 19 4 29 12 29 24 0 20 -20 68 -29 70 -48 8 -83 6 -96 -7z m55
-78 c0 -2 -8 -10 -17 -17 -16 -13 -17 -12 -4 4 13 16 21 21 21 13z"/>
<path d="M2300 3702 c0 -18 -4 -32 -9 -32 -5 0 -11 -7 -15 -15 -4 -13 -2 -14
14 -5 24 13 37 57 21 73 -8 8 -11 3 -11 -21z"/>
<path d="M2884 3715 c-8 -19 12 -36 33 -28 19 7 12 37 -10 41 -9 2 -20 -4 -23
-13z"/>
<path d="M3020 3711 c0 -4 11 -13 25 -19 14 -6 25 -8 25 -3 0 4 -11 13 -25 19
-14 6 -25 8 -25 3z"/>
<path d="M3093 3705 c-7 -8 -13 -17 -13 -20 0 -3 6 -3 13 1 9 6 9 4 -1 -8 -10
-13 -10 -19 3 -32 19 -18 35 -21 35 -6 0 6 -5 10 -11 10 -6 0 -7 5 -2 13 12
19 12 38 0 30 -6 -4 -8 0 -4 10 8 21 -3 21 -20 2z"/>
<path d="M2029 3703 c-1 -5 -1 -12 0 -17 1 -4 -7 -16 -18 -26 -12 -9 -18 -20
-14 -24 12 -12 40 -6 57 13 14 15 15 24 6 40 -10 21 -29 28 -31 14z"/>
<path d="M2590 3700 c20 -13 33 -13 25 0 -3 6 -14 10 -23 10 -15 0 -15 -2 -2
-10z"/>
<path d="M2217 3674 c-3 -5 3 -15 13 -22 12 -7 21 -8 25 -2 3 6 0 10 -9 10 -8
0 -16 5 -18 12 -3 7 -7 8 -11 2z"/>
<path d="M2625 3651 c0 -16 3 -27 8 -24 4 2 7 15 7 29 0 13 -3 24 -7 24 -5 0
-8 -13 -8 -29z"/>
<path d="M2096 3662 c-3 -6 10 -13 28 -16 28 -5 36 -12 39 -34 l4 -27 2 26 c0
15 -5 31 -11 37 -21 16 -56 24 -62 14z"/>
<path d="M3350 3655 c-16 -20 -5 -62 20 -75 14 -7 20 -7 20 0 0 5 -6 10 -12
10 -9 0 -9 3 1 9 8 5 21 7 28 4 12 -5 12 -7 1 -15 -11 -8 -10 -9 1 -6 8 2 18
13 22 25 17 45 -50 85 -81 48z"/>
<path d="M2895 3644 c-9 -9 -13 -24 -10 -35 5 -13 2 -19 -10 -19 -8 0 -21 -12
-27 -26 -11 -23 -10 -29 11 -45 25 -21 39 -23 59 -10 11 7 10 9 -3 14 -10 5
-14 3 -9 -5 4 -7 3 -8 -4 -4 -9 5 -9 12 0 26 11 17 13 17 25 2 15 -21 18 0 3
28 -7 13 -6 19 5 24 20 7 19 52 -1 60 -21 8 -20 8 -39 -10z m29 -21 c-20 -15
-34 -17 -34 -5 0 16 23 30 38 25 13 -5 12 -8 -4 -20z"/>
<path d="M2421 3622 c-7 -14 -6 -25 4 -39 13 -18 13 -22 0 -33 -38 -31 -1 -89
48 -75 l22 7 -22 -17 c-15 -10 -23 -26 -22 -43 0 -15 3 -21 6 -14 2 6 11 12
19 12 8 0 17 7 20 15 4 8 12 15 20 15 8 0 14 5 14 10 0 6 -5 10 -11 10 -6 0
-10 10 -9 23 3 37 1 45 -19 64 -14 13 -17 23 -11 33 12 19 -6 50 -30 50 -11 0
-24 -8 -29 -18z"/>
<path d="M1460 3619 c0 -27 22 -49 50 -49 41 0 46 16 10 32 -16 7 -30 16 -30
20 0 5 -7 8 -15 8 -8 0 -15 -5 -15 -11z"/>
<path d="M3526 3614 c-22 -22 -20 -31 3 -10 23 21 76 12 67 -11 -3 -8 -1 -11
4 -8 6 3 10 -1 10 -9 0 -9 -7 -16 -15 -16 -8 0 -14 -6 -12 -12 1 -9 -9 -12
-33 -10 -26 1 -31 0 -20 -8 38 -25 90 3 90 48 0 23 -34 52 -62 52 -9 0 -24 -7
-32 -16z"/>
<path d="M3178 3598 c-19 -15 -26 -56 -15 -76 9 -14 27 -7 27 11 0 7 -4 6 -10
-3 -8 -13 -10 -13 -10 1 0 9 7 22 15 29 8 7 15 18 15 25 0 8 6 16 13 18 8 4 7
6 -4 6 -8 1 -22 -5 -31 -11z m12 -22 c0 -3 -4 -8 -10 -11 -5 -3 -10 -1 -10 4
0 6 5 11 10 11 6 0 10 -2 10 -4z"/>
<path d="M3255 3562 c6 -28 4 -34 -14 -39 -12 -3 -21 -9 -21 -14 0 -14 17 -11
34 7 18 18 20 42 5 64 -8 11 -9 6 -4 -18z"/>
<path d="M1570 3565 c-15 -18 -6 -45 13 -45 8 0 20 7 27 15 10 12 10 18 0 30
-16 19 -24 19 -40 0z"/>
<path d="M1758 3543 c0 -16 -1 -34 -1 -41 1 -10 -2 -10 -16 0 -14 12 -15 11
-2 -4 20 -27 59 -23 73 7 9 21 8 28 -7 45 -25 28 -45 25 -47 -7z"/>
<path d="M1364 3535 c-14 -14 -24 -33 -22 -42 2 -9 -10 -29 -25 -45 -30 -30
-30 -49 1 -98 9 -14 15 -32 14 -40 -1 -8 3 -5 10 8 9 19 17 21 45 16 31 -6 34
-4 48 30 21 49 19 64 -13 95 -22 22 -25 30 -15 40 9 8 13 8 13 1 0 -6 4 -9 9
-6 5 4 7 -4 4 -16 -4 -22 -4 -23 11 -4 21 26 20 33 -9 61 -30 31 -40 31 -71 0z
m50 -128 c4 -18 3 -26 -3 -23 -5 4 -11 -2 -13 -11 -3 -15 -5 -14 -10 5 -3 12
-2 20 3 16 5 -3 9 7 9 22 0 33 5 29 14 -9z"/>
<path d="M2591 3546 c-15 -18 2 -56 24 -56 21 0 35 32 24 53 -12 21 -32 22
-48 3z"/>
<path d="M3311 3546 c-18 -21 -9 -66 14 -82 27 -18 69 2 73 35 7 46 -59 81
-87 47z"/>
<path d="M1500 3510 c0 -11 -9 -29 -19 -39 -16 -16 -17 -20 -5 -25 18 -7 50 8
57 26 6 17 -10 58 -23 58 -5 0 -10 -9 -10 -20z"/>
<path d="M1883 3518 c-34 -9 -63 -41 -63 -69 0 -20 37 -69 53 -69 6 0 3 6 -7
13 -22 16 -15 46 15 65 28 18 37 7 14 -18 -13 -14 -15 -24 -8 -31 7 -7 14 -5
23 6 17 21 29 19 27 -4 0 -11 -5 -19 -10 -18 -5 1 -12 -4 -14 -10 -7 -19 11
-16 41 8 30 24 34 63 10 97 -22 32 -45 40 -81 30z m27 -92 c0 -3 -4 -8 -10
-11 -5 -3 -10 -1 -10 4 0 6 5 11 10 11 6 0 10 -2 10 -4z"/>
<path d="M2222 3518 c-17 -17 -15 -45 3 -52 8 -3 22 2 30 11 15 14 14 17 -1
34 -20 22 -17 22 -32 7z"/>
<path d="M2005 3500 c-3 -5 -1 -10 4 -10 6 0 11 5 11 10 0 6 -2 10 -4 10 -3 0
-8 -4 -11 -10z"/>
<path d="M2772 3497 c-13 -15 1 -42 17 -33 6 4 11 2 11 -4 0 -6 5 -8 10 -5 6
3 10 17 10 31 0 27 -29 34 -48 11z"/>
<path d="M3569 3476 c-14 -30 -4 -76 16 -76 8 0 13 10 13 28 -1 15 2 37 6 50
10 31 -21 30 -35 -2z"/>
<path d="M3236 3481 c-3 -5 2 -8 11 -7 9 0 22 -9 28 -21 13 -25 25 -21 25 8 0
24 -51 41 -64 20z"/>
<path d="M2335 3450 c-17 -18 -17 -20 -2 -14 10 3 17 1 17 -5 0 -6 7 -11 16
-11 14 0 14 -3 4 -15 -15 -17 -7 -19 21 -5 21 12 25 40 7 58 -18 18 -43 15
-63 -8z"/>
<path d="M3458 3453 c-35 -5 -37 -23 -2 -23 14 0 22 -4 19 -10 -3 -5 0 -7 9
-4 10 4 16 -3 19 -23 3 -15 4 -8 3 16 -1 47 -5 50 -48 44z"/>
<path d="M3667 3433 c-5 -27 -2 -41 7 -32 11 10 17 59 8 59 -5 0 -12 -12 -15
-27z"/>
<path d="M2252 3438 c-15 -15 -15 -41 0 -56 9 -9 7 -16 -7 -32 -35 -38 16 -95
53 -58 16 16 15 48 -2 67 -21 23 -24 57 -6 53 8 -2 12 0 8 4 -4 4 -3 13 3 21
9 10 6 13 -13 13 -13 0 -29 -5 -36 -12z"/>
<path d="M1630 3421 c0 -11 9 -23 20 -26 34 -11 19 -49 -29 -75 -22 -11 -22
-13 -7 -22 26 -14 53 -1 67 35 7 18 17 35 22 38 13 9 0 29 -19 29 -8 0 -14 7
-14 16 0 8 -4 12 -10 9 -5 -3 -10 -1 -10 4 0 6 -4 11 -10 11 -5 0 -10 -9 -10
-19z"/>
<path d="M2180 3414 c0 -10 28 -34 40 -34 6 0 9 -4 5 -9 -3 -5 -1 -12 5 -16
22 -14 8 34 -15 49 -26 17 -35 20 -35 10z"/>
<path d="M2850 3405 c-7 -8 -10 -18 -6 -22 3 -3 6 -1 6 5 0 7 4 12 10 12 5 0
6 -7 3 -17 -5 -12 -3 -14 8 -8 11 6 12 5 2 -6 -7 -7 -13 -17 -13 -22 0 -15 42
-3 54 16 23 37 -36 76 -64 42z m50 -40 c-7 -8 -17 -15 -22 -15 -11 0 14 29 26
30 5 0 3 -7 -4 -15z"/>
<path d="M2002 3379 c-31 -12 -38 -37 -20 -70 15 -26 15 -27 -4 -33 -14 -3
-27 3 -39 18 -21 27 -58 25 -83 -3 -15 -16 -14 -20 8 -46 14 -16 35 -29 47
-30 13 -1 25 -7 27 -14 8 -24 34 -41 62 -41 30 0 70 33 70 57 0 8 5 11 10 8
14 -9 12 19 -2 33 -7 7 -19 12 -28 12 -9 0 -17 6 -17 13 0 10 10 13 32 10 20
-2 37 2 45 11 14 18 5 37 -15 30 -7 -3 -18 4 -24 15 -16 29 -42 40 -69 30z"/>
<path d="M3092 3376 c19 -14 18 -47 -1 -86 -11 -22 -10 -23 2 -7 21 26 30 21
11 -8 -20 -30 -11 -45 26 -45 57 0 60 70 4 84 -16 4 -21 11 -17 26 6 21 -12
50 -31 50 -6 0 -3 -6 6 -14z m78 -105 c0 -11 -20 -36 -21 -26 0 6 -2 18 -4 27
-2 11 2 15 11 11 8 -3 14 -8 14 -12z"/>
<path d="M2342 3361 c-8 -4 -12 -19 -10 -32 2 -18 9 -24 28 -24 19 0 26 6 28
24 3 20 -11 41 -28 41 -3 0 -11 -4 -18 -9z"/>
<path d="M1433 3335 c-21 -23 -23 -35 -10 -52 13 -17 49 -16 73 1 15 12 17 17
7 27 -7 7 -13 20 -13 29 0 22 -36 20 -57 -5z"/>
<path d="M2487 3333 c-14 -13 -6 -70 11 -86 36 -33 72 -14 72 38 0 17 -5 36
-12 43 -13 13 -60 16 -71 5z"/>
<path d="M3342 3328 c-32 -32 1 -106 42 -93 12 4 31 8 44 8 25 2 43 23 35 43
-5 14 -76 54 -96 54 -7 0 -18 -5 -25 -12z"/>
<path d="M1570 3305 c-8 -9 -8 -15 -2 -15 12 0 26 19 19 26 -2 2 -10 -2 -17
-11z"/>
<path d="M1225 3300 c-3 -5 -1 -10 4 -10 6 0 11 5 11 10 0 6 -2 10 -4 10 -3 0
-8 -4 -11 -10z"/>
<path d="M1330 3286 c0 -2 7 -9 15 -16 9 -7 15 -8 15 -2 0 5 -7 12 -15 16 -8
3 -15 4 -15 2z"/>
<path d="M2910 3275 c-11 -13 -11 -19 3 -32 21 -21 49 -9 45 19 -4 28 -30 35
-48 13z"/>
<path d="M3220 3280 c-9 -6 -10 -10 -3 -10 6 0 15 5 18 10 8 12 4 12 -15 0z"/>
<path d="M1770 3225 c0 -15 4 -24 10 -20 6 3 10 12 10 20 0 8 -4 17 -10 20 -6
4 -10 -5 -10 -20z"/>
<path d="M3204 3231 c20 -22 26 -25 26 -13 0 4 -10 13 -22 21 -23 14 -23 14
-4 -8z"/>
<path d="M1503 3214 c-8 -22 10 -49 32 -49 10 0 22 7 28 16 15 24 1 49 -28 49
-15 0 -28 -7 -32 -16z"/>
<path d="M1735 3210 c3 -5 11 -10 16 -10 6 0 7 5 4 10 -3 6 -11 10 -16 10 -6
0 -7 -4 -4 -10z"/>
<path d="M2096 3194 c-29 -28 -12 -64 30 -64 34 0 49 62 18 74 -24 9 -31 8
-48 -10z m21 -24 c-4 -17 -2 -20 15 -14 14 4 18 2 14 -5 -9 -14 -43 -14 -51
-1 -3 6 -2 10 4 10 6 0 8 7 5 15 -4 8 -1 15 6 15 7 0 10 -8 7 -20z"/>
<path d="M1200 3174 c0 -30 34 -33 50 -4 6 11 9 21 8 21 -2 1 -15 3 -30 5 -24
2 -28 -1 -28 -22z"/>
<path d="M1821 3153 c-1 -17 16 -25 25 -12 4 7 3 9 -4 5 -5 -3 -13 0 -15 6 -4
9 -6 10 -6 1z"/>
<path d="M1264 3126 c-17 -44 22 -72 56 -41 15 14 17 22 9 36 -12 22 -57 25
-65 5z m53 -16 c4 -13 3 -13 -6 0 -9 13 -11 13 -11 -2 0 -10 -7 -18 -15 -18
-17 0 -18 2 -9 25 8 19 36 16 41 -5z"/>
<path d="M1719 3113 c-6 -7 -15 -10 -20 -7 -18 10 -9 -26 11 -46 25 -25 62
-26 84 -1 17 19 14 47 -4 36 -13 -8 -42 7 -37 20 7 16 -21 15 -34 -2z"/>
<path d="M1986 3114 c-23 -22 -20 -33 8 -28 17 3 29 -2 39 -16 15 -21 27 -17
27 10 0 18 -30 50 -48 50 -6 0 -18 -7 -26 -16z"/>
<path d="M1164 3108 c-4 -7 -2 -8 4 -4 7 4 12 1 12 -8 0 -8 9 -18 20 -21 11
-4 18 -10 15 -15 -6 -10 23 -22 36 -14 13 7 11 27 -3 47 -15 20 -75 30 -84 15z"/>
<path d="M1619 3027 c-14 -19 -19 -20 -33 -8 -9 7 -16 9 -16 3 0 -5 6 -15 14
-21 20 -17 56 3 56 29 0 25 -1 24 -21 -3z"/>
<path d="M1956 3028 c-16 -22 -39 -28 -114 -30 -34 -1 -24 -18 10 -18 9 0 19
-9 23 -19 7 -23 43 -37 57 -23 7 7 20 4 39 -7 26 -14 31 -15 56 -1 48 27 41
116 -7 103 -11 -3 -26 0 -34 6 -11 10 -18 7 -30 -11z m-36 -53 c-6 -8 -9 -20
-5 -27 4 -7 -1 -4 -9 6 -22 27 -20 36 5 36 18 0 19 -3 9 -15z m78 0 c12 -3 22
-11 22 -17 0 -6 -6 -5 -16 3 -12 10 -20 10 -34 1 -15 -9 -19 -7 -23 9 -6 21
-6 20 51 4z m-8 -19 c0 -3 -4 -8 -10 -11 -5 -3 -10 -1 -10 4 0 6 5 11 10 11 6
0 10 -2 10 -4z"/>
<path d="M1130 3027 c0 -29 53 -54 81 -37 18 12 8 20 -29 23 -17 1 -30 6 -29
11 1 5 -4 11 -10 13 -7 3 -13 -2 -13 -10z"/>
<path d="M1390 3027 c-20 -11 -25 -20 -24 -50 1 -34 17 -67 33 -67 3 0 6 24 5
53 0 28 4 58 9 65 12 15 8 15 -23 -1z"/>
<path d="M1448 3008 c7 -7 12 -27 12 -45 0 -25 4 -31 15 -27 32 12 9 84 -26
84 -10 0 -10 -3 -1 -12z"/>
<path d="M1703 2994 c-8 -20 17 -36 34 -22 10 8 10 14 2 24 -15 18 -28 18 -36
-2z"/>
<path d="M1272 2984 c-27 -19 -30 -69 -4 -79 14 -5 15 -4 5 6 -21 21 -15 54
11 68 13 8 30 10 37 6 8 -5 10 -4 5 3 -10 16 -27 15 -54 -4z"/>
<path d="M1525 2880 c-10 -11 -15 -23 -12 -27 4 -3 7 -1 7 6 0 6 15 18 33 26
25 11 27 14 11 15 -11 0 -29 -9 -39 -20z"/>
<path d="M1980 2850 c-9 -6 -10 -10 -3 -10 6 0 15 5 18 10 8 12 4 12 -15 0z"/>
<path d="M1750 2840 c0 -5 5 -10 10 -10 6 0 10 5 10 10 0 6 -4 10 -10 10 -5 0
-10 -4 -10 -10z"/>
<path d="M1890 2840 c0 -11 38 -32 50 -28 5 2 -4 11 -20 20 -17 9 -30 13 -30
8z"/>
<path d="M1221 2814 c-34 -43 -23 -88 21 -89 13 0 29 -4 37 -9 22 -14 54 31
46 63 -16 62 -69 80 -104 35z"/>
<path d="M1403 2832 c-20 -13 -32 -56 -19 -72 26 -34 106 -18 106 20 0 40 -54
73 -87 52z"/>
<path d="M1510 2831 c0 -6 4 -13 10 -16 6 -3 7 1 4 9 -7 18 -14 21 -14 7z"/>
<path d="M1846 2784 c-7 -18 11 -37 28 -31 24 9 21 46 -4 44 -11 -1 -21 -6
-24 -13z"/>
<path d="M1558 2755 c11 -16 9 -54 -2 -48 -5 4 -7 -1 -3 -10 3 -9 2 -19 -3
-22 -13 -8 -13 -35 0 -35 6 0 10 6 10 14 0 23 29 46 56 46 22 0 24 3 18 23 -3
12 -14 26 -23 32 -22 13 -61 14 -53 0z"/>
<path d="M1132 2678 c-32 -32 18 -87 53 -58 21 17 19 24 -10 40 -13 7 -22 17
-19 22 8 12 -10 10 -24 -4z"/>
<path d="M1760 2641 c0 -11 4 -22 9 -25 4 -3 6 6 3 19 -5 30 -12 33 -12 6z"/>
<path d="M1352 2588 c-30 -30 0 -78 37 -58 32 17 21 70 -14 70 -6 0 -16 -5
-23 -12z"/>
<path d="M1614 2563 c-9 -35 7 -58 42 -60 16 -1 21 1 12 3 -19 6 -13 34 8 34
17 0 8 26 -12 34 -9 3 -12 1 -9 -4 3 -6 1 -10 -4 -10 -20 0 -26 5 -23 18 6 25
-8 11 -14 -15z"/>
<path d="M1857 2573 c-15 -15 -6 -33 17 -31 17 2 22 7 18 20 -4 18 -23 24 -35
11z"/>
<path d="M1771 2546 c-16 -20 -3 -46 24 -46 25 0 38 21 29 45 -8 19 -38 19
-53 1z"/>
<path d="M1246 2487 c1 -33 -3 -45 -20 -54 -20 -12 -20 -12 4 -11 37 2 50 16
50 54 0 22 -6 37 -18 43 -15 8 -17 4 -16 -32z"/>
<path d="M1512 2489 c2 -6 8 -10 13 -10 5 0 11 4 13 10 2 6 -4 11 -13 11 -9 0
-15 -5 -13 -11z"/>
<path d="M1050 2461 c-14 -26 -13 -31 6 -31 8 0 12 5 9 10 -4 6 -1 17 5 25 8
10 9 15 2 15 -6 0 -16 -9 -22 -19z"/>
<path d="M1125 2464 c11 -12 14 -26 10 -48 -5 -23 -4 -27 4 -16 21 29 7 80
-22 80 -5 0 -1 -7 8 -16z"/>
<path d="M1800 2445 c0 -8 2 -15 4 -15 2 0 6 7 10 15 3 8 1 15 -4 15 -6 0 -10
-7 -10 -15z"/>
<path d="M1600 2435 c-7 -9 -10 -25 -6 -40 6 -22 11 -26 39 -23 27 3 33 8 35
32 5 43 -41 64 -68 31z"/>
<path d="M1717 2444 c-12 -12 -8 -41 8 -54 20 -17 47 5 43 34 -3 21 -37 34
-51 20z"/>
<path d="M1521 2417 c-6 -8 -7 -17 -3 -22 6 -7 -34 -3 -67 6 -22 7 -23 -16 -1
-44 25 -31 64 -35 98 -11 26 18 30 47 5 37 -13 -5 -15 -2 -10 11 4 10 7 21 7
24 0 4 5 0 10 -8 8 -13 10 -12 10 3 0 20 -32 23 -49 4z"/>
<path d="M1818 2388 c5 -5 16 -8 23 -6 8 3 3 7 -10 11 -17 4 -21 3 -13 -5z"/>
<path d="M1153 2345 c-19 -13 -21 -19 -11 -40 13 -30 34 -38 59 -25 25 14 25
56 0 70 -25 13 -22 13 -48 -5z"/>
<path d="M1822 2348 c-7 -7 -12 -23 -12 -36 0 -17 -4 -22 -14 -19 -11 4 -9 -3
5 -28 12 -19 17 -40 13 -46 -4 -7 -2 -10 7 -7 8 3 15 14 17 26 2 15 10 22 26
22 28 0 46 18 46 46 0 44 -58 72 -88 42z"/>
<path d="M1658 2339 c-10 -5 -18 -17 -18 -26 0 -15 2 -15 18 0 10 10 22 14 25
10 4 -3 7 -1 7 6 0 8 6 11 16 7 8 -3 12 -2 9 4 -8 13 -35 12 -57 -1z"/>
<path d="M1450 2296 c0 -8 4 -17 9 -20 5 -4 7 3 4 14 -6 23 -13 26 -13 6z"/>
<path d="M1750 2279 c0 -5 5 -7 10 -4 6 3 10 8 10 11 0 2 -4 4 -10 4 -5 0 -10
-5 -10 -11z"/>
<path d="M1294 2235 c-8 -20 4 -35 26 -35 23 0 32 13 24 34 -8 20 -43 21 -50
1z"/>
<path d="M1521 2223 c-1 -12 8 -28 19 -36 27 -19 17 -46 -14 -40 -17 4 -22 10
-19 22 6 25 -24 48 -45 34 -25 -15 -22 -49 3 -45 14 2 16 0 7 -6 -7 -5 -15
-25 -18 -44 -5 -29 -2 -38 17 -52 13 -9 30 -16 39 -16 8 0 22 -15 30 -32 15
-31 55 -55 64 -39 3 5 -8 23 -25 40 -18 19 -28 39 -25 48 3 8 6 19 6 24 0 5
13 9 28 9 33 0 52 16 52 45 0 30 -28 53 -70 57 -27 2 -36 8 -41 28 -6 23 -7
23 -8 3z m-28 -37 c4 -9 -2 -12 -16 -11 -29 3 -29 3 -22 15 9 14 32 12 38 -4z
m82 -43 c-2 -10 -4 -22 -4 -26 -1 -5 -5 -6 -10 -3 -11 7 -3 46 9 46 5 0 7 -8
5 -17z m-55 -64 c-21 -9 -27 -3 -27 24 l0 24 21 -21 c17 -18 19 -22 6 -27z"/>
<path d="M1731 2213 c-1 -7 8 -17 18 -22 16 -9 18 -8 14 10 -4 14 -8 17 -13 9
-6 -9 -9 -9 -13 1 -4 9 -6 10 -6 2z"/>
<path d="M1777 2199 c5 -5 23 -11 39 -13 15 -2 30 -9 32 -16 3 -9 -3 -11 -22
-8 -17 4 -25 1 -23 -6 6 -17 51 -13 54 4 5 25 -10 37 -51 43 -27 4 -36 3 -29
-4z"/>
<path d="M1163 2129 c6 -18 -7 -44 -23 -44 -5 0 -10 -4 -10 -10 0 -18 32 -11
46 11 12 17 12 23 -2 40 -11 14 -14 15 -11 3z"/>
<path d="M1280 2095 c-18 -22 -1 -50 31 -50 20 0 24 5 24 30 0 23 -5 31 -21
33 -11 2 -27 -4 -34 -13z"/>
<path d="M1633 2055 c7 -14 15 -25 20 -25 10 0 9 8 -3 31 -16 28 -30 23 -17
-6z"/>
<path d="M1944 2039 c-9 -16 10 -31 30 -23 13 5 14 9 5 20 -14 17 -25 18 -35
3z"/>
<path d="M1757 2033 c-12 -12 -7 -41 7 -46 19 -7 40 18 32 38 -6 15 -28 20
-39 8z"/>
<path d="M1907 2025 c-10 -7 -27 -10 -39 -7 -14 3 -19 1 -14 -6 4 -7 15 -12
24 -12 18 1 58 27 51 34 -2 2 -12 -2 -22 -9z"/>
<path d="M1333 2023 c-7 -2 -13 -11 -13 -18 0 -7 6 -15 13 -18 9 -3 9 -9 -1
-26 -12 -21 -12 -21 8 -11 20 11 28 50 10 50 -5 0 -10 5 -10 11 0 5 5 7 10 4
6 -3 10 -1 10 4 0 12 -7 13 -27 4z"/>
<path d="M1267 2013 c-4 -3 -7 -13 -7 -21 0 -18 13 -7 16 13 2 17 1 18 -9 8z"/>
<path d="M1890 1935 c-9 -10 -9 -15 -1 -15 6 0 11 4 11 9 0 5 8 12 18 14 14 4
14 5 1 6 -9 0 -22 -6 -29 -14z"/>
<path d="M1942 1940 c6 -18 30 -20 34 -2 1 7 0 8 -3 2 -3 -7 -10 -7 -21 2 -13
11 -14 11 -10 -2z"/>
<path d="M1804 1925 c-4 -10 -15 -13 -37 -9 -24 4 -28 3 -17 -4 8 -6 18 -8 22
-6 4 3 8 0 8 -5 0 -6 -5 -11 -11 -11 -5 0 -8 -4 -4 -10 4 -6 15 -6 32 1 21 8
29 6 45 -11 10 -11 17 -20 16 -20 -2 0 -17 4 -35 9 -25 7 -34 6 -44 -7 -11
-14 -11 -15 0 -5 11 9 17 8 29 -3 8 -8 21 -13 29 -10 8 3 21 6 29 6 18 0 18
24 -1 40 -11 9 -12 17 -5 30 15 27 13 30 -20 30 -18 0 -33 -6 -36 -15z"/>
<path d="M1212 1914 c-7 -8 -8 -14 -3 -14 10 0 25 19 20 25 -2 1 -10 -3 -17
-11z"/>
<path d="M1412 1914 c-23 -15 -30 -48 -13 -59 6 -3 15 4 21 15 6 11 18 20 26
20 9 0 12 5 8 12 -5 8 0 9 17 5 23 -6 23 -5 5 8 -25 19 -36 19 -64 -1z"/>
<path d="M1277 1907 c-8 -21 8 -39 29 -35 27 5 25 42 -2 46 -12 2 -24 -3 -27
-11z"/>
<path d="M1720 1900 c0 -5 5 -10 11 -10 5 0 7 5 4 10 -3 6 -8 10 -11 10 -2 0
-4 -4 -4 -10z"/>
<path d="M2038 1858 c-44 -21 -46 -31 -15 -62 18 -18 20 -25 10 -34 -7 -7 -17
-12 -23 -12 -6 0 -9 -4 -6 -9 4 -5 3 -11 -1 -14 -5 -2 -2 -2 5 -1 6 2 19 1 27
-2 12 -5 13 -10 4 -20 -8 -10 -8 -14 0 -14 17 0 43 47 37 68 -4 12 1 25 14 37
25 22 26 47 3 67 -16 13 -22 12 -55 -4z"/>
<path d="M1679 1851 c-1 -9 -1 -19 0 -23 0 -5 -5 -8 -11 -8 -7 0 -26 -11 -42
-25 -28 -24 -29 -27 -13 -42 15 -15 19 -15 58 2 23 11 50 18 61 18 18 -2 20 3
15 38 -4 28 -2 37 6 33 9 -5 9 -4 1 5 -18 20 -74 20 -75 2z m23 -33 c-7 -7
-12 -8 -12 -2 0 6 3 14 7 17 3 4 9 5 12 2 2 -3 -1 -11 -7 -17z"/>
<path d="M1904 1829 c-6 -10 42 -69 57 -69 14 0 20 39 9 60 -11 21 -54 28 -66
9z"/>
<path d="M3172 1831 c-10 -6 -12 -23 -7 -68 7 -55 9 -59 30 -56 17 4 21 11 19
30 -1 14 0 22 3 19 11 -11 33 16 33 40 0 34 -47 55 -78 35z"/>
<path d="M3345 1830 c3 -5 11 -10 16 -10 6 0 7 5 4 10 -3 6 -11 10 -16 10 -6
0 -7 -4 -4 -10z"/>
<path d="M1587 1809 c4 -13 9 -17 15 -11 11 11 3 32 -12 32 -4 0 -6 -9 -3 -21z"/>
<path d="M1173 1813 c-21 -8 -16 -61 6 -73 50 -26 97 1 89 53 -2 18 -10 22
-43 24 -22 1 -46 -1 -52 -4z"/>
<path d="M2389 1789 c-30 -30 -21 -59 22 -73 39 -14 60 -6 72 27 5 12 -1 26
-18 43 -29 29 -49 30 -76 3z"/>
<path d="M1890 1793 c0 -5 10 -18 23 -29 l22 -19 -20 25 c-11 14 -21 27 -22
29 -2 2 -3 0 -3 -6z"/>
<path d="M3377 1793 c-4 -3 -7 -16 -6 -27 0 -19 1 -19 10 3 10 24 8 36 -4 24z"/>
<path d="M3290 1781 c0 -14 30 -41 45 -41 9 0 5 9 -11 25 -27 27 -34 30 -34
16z"/>
<path d="M1402 1761 c-11 -7 -10 -10 3 -15 11 -4 16 -16 15 -33 -3 -49 0 -61
14 -59 22 3 54 48 50 71 -5 36 -51 56 -82 36z m45 -7 c-3 -3 -12 -4 -19 -1 -8
3 -5 6 6 6 11 1 17 -2 13 -5z"/>
<path d="M1520 1735 c-13 -35 -14 -35 15 -33 28 3 34 28 10 48 -12 10 -16 8
-25 -15z"/>
<path d="M3240 1733 c-11 -15 -19 -32 -16 -39 3 -7 -3 -10 -17 -8 -21 4 -20 4
1 -6 25 -11 62 2 62 21 0 6 -4 8 -9 5 -5 -3 -12 1 -15 9 -4 11 0 15 11 13 10
-2 19 5 21 15 5 25 -14 21 -38 -10z"/>
<path d="M1685 1740 c3 -5 8 -10 11 -10 2 0 4 5 4 10 0 6 -5 10 -11 10 -5 0
-7 -4 -4 -10z"/>
<path d="M2972 1730 c-12 -12 -22 -29 -22 -40 0 -10 -6 -21 -12 -23 -10 -4
-10 -8 -1 -14 6 -4 15 -21 18 -36 9 -34 25 -45 36 -25 5 10 18 14 33 11 19 -4
33 3 56 25 35 36 38 60 9 96 -26 33 -84 36 -117 6z m38 0 c0 -5 -2 -10 -4 -10
-3 0 -8 5 -11 10 -3 6 -1 10 4 10 6 0 11 -4 11 -10z m51 -15 c3 2 5 -4 6 -15
1 -13 -3 -17 -13 -13 -8 3 -14 9 -14 14 0 4 -8 5 -17 2 -15 -6 -16 -5 -3 9 9
10 19 13 26 7 6 -5 13 -7 15 -4z m-62 -79 c-2 -2 -13 8 -23 22 l-19 27 24 -22
c12 -12 21 -24 18 -27z"/>
<path d="M3436 1721 c5 -5 19 -12 31 -16 18 -5 22 -3 17 9 -3 9 -18 16 -32 16
-16 0 -22 -4 -16 -9z"/>
<path d="M2290 1701 c-16 -31 4 -63 37 -59 34 4 52 32 37 56 -16 26 -60 28
-74 3z"/>
<path d="M2688 1689 c-21 -12 -24 -49 -6 -67 13 -13 49 -17 47 -4 -1 4 -1 20
0 36 1 21 4 26 14 20 7 -5 4 -1 -6 9 -22 20 -26 20 -49 6z"/>
<path d="M3446 1693 c-11 -11 -6 -23 9 -23 8 0 15 4 15 9 0 13 -16 22 -24 14z"/>
<path d="M1830 1680 c-9 -6 -10 -10 -3 -10 6 0 15 5 18 10 8 12 4 12 -15 0z"/>
<path d="M2095 1670 c-7 -11 12 -50 24 -50 15 0 33 29 27 45 -6 17 -41 20 -51
5z"/>
<path d="M3330 1656 c0 -18 -59 -68 -71 -60 -5 3 -9 -1 -9 -9 0 -20 32 -45 53
-42 9 2 17 -1 17 -6 0 -14 50 -11 51 4 4 49 -5 94 -22 110 -15 14 -19 15 -19
3z"/>
<path d="M1284 1649 c-3 -6 -2 -15 3 -20 5 -5 9 -1 9 11 0 23 -2 24 -12 9z"/>
<path d="M2242 1643 c-7 -2 -17 -13 -22 -23 -9 -17 -8 -17 19 -4 29 14 61 10
61 -8 0 -5 6 -6 13 -2 9 6 9 4 -1 -8 -9 -12 -10 -18 -2 -23 8 -5 8 -11 1 -19
-8 -9 -7 -13 2 -13 8 0 14 14 15 33 3 46 -45 84 -86 67z"/>
<path d="M1732 1613 c-30 -30 -31 -55 -4 -85 21 -25 74 -23 98 3 12 13 27 19
42 16 28 -5 52 16 52 48 0 26 -18 43 -29 28 -7 -11 -62 -49 -76 -54 -5 -2 -9
-10 -7 -19 2 -13 2 -13 -7 0 -10 14 -15 7 -12 -13 2 -14 -30 -20 -42 -7 -10
10 -7 12 11 7 24 -6 24 -5 5 16 -12 14 -13 18 -2 9 18 -14 30 -6 22 14 -4 11
1 14 21 10 35 -6 44 13 15 35 -33 26 -55 24 -87 -8z"/>
<path d="M2743 1634 c-17 -7 -1 -55 29 -87 31 -34 48 -34 48 -2 0 17 -4 23
-14 19 -8 -3 -23 -1 -33 5 -17 10 -16 10 4 11 12 0 25 5 29 11 4 8 9 7 15 -2
7 -12 9 -12 9 -1 0 30 -54 59 -87 46z"/>
<path d="M2545 1593 c2 -63 66 -76 81 -17 8 32 -7 48 -49 49 -32 1 -33 0 -32
-32z"/>
<path d="M1325 1601 c-7 -23 3 -51 19 -51 7 0 18 -16 25 -35 11 -30 17 -35 45
-35 43 0 69 28 60 64 -7 28 -31 46 -62 46 -11 0 -25 7 -32 15 -17 21 -47 19
-55 -4z m120 -51 c16 -18 16 -20 2 -20 -10 0 -17 7 -17 15 0 8 -5 15 -11 15
-6 0 -8 -9 -4 -22 6 -18 5 -20 -5 -11 -13 12 -7 43 8 43 5 0 17 -9 27 -20z"/>
<path d="M1530 1609 c0 -5 5 -7 10 -4 6 3 10 8 10 11 0 2 -4 4 -10 4 -5 0 -10
-5 -10 -11z"/>
<path d="M2430 1605 c-19 -23 -8 -50 20 -50 18 0 26 6 28 22 4 29 -30 49 -48
28z"/>
<path d="M1478 1598 c5 -5 16 -8 23 -6 8 3 3 7 -10 11 -17 4 -21 3 -13 -5z"/>
<path d="M2072 1588 c-24 -31 -24 -59 -1 -84 25 -26 49 -30 82 -13 16 9 22 9
25 1 2 -8 9 -9 21 -2 10 5 22 6 26 2 4 -4 5 0 3 8 -3 8 -11 14 -17 13 -6 -2
-11 1 -11 6 0 6 -9 8 -19 6 -14 -2 -18 1 -14 11 3 7 10 11 15 8 13 -9 -12 39
-26 48 -18 12 -73 9 -84 -4z"/>
<path d="M1600 1582 c0 -14 40 -42 61 -42 9 0 23 8 30 18 11 14 11 15 -1 5
-20 -19 -41 -16 -67 9 -13 12 -23 16 -23 10z"/>
<path d="M3135 1569 c-4 -5 -4 -21 -1 -35 7 -25 6 -25 -19 -8 -23 15 -27 15
-50 0 -28 -18 -33 -57 -11 -75 10 -9 15 -8 20 4 3 8 13 15 22 15 14 0 14 -3 4
-15 -17 -20 -11 -25 18 -14 15 6 22 17 22 36 0 15 5 35 10 43 8 13 10 12 10
-2 0 -10 5 -18 10 -18 16 0 12 18 -8 38 -10 10 -16 24 -14 30 5 15 -4 16 -13
1z m-8 -85 c-3 -3 -12 -4 -19 -1 -8 3 -5 6 6 6 11 1 17 -2 13 -5z"/>
<path d="M1560 1552 c0 -10 -9 -29 -20 -42 -32 -37 -22 -52 21 -30 21 12 27
74 9 85 -5 3 -10 -2 -10 -13z"/>
<path d="M2260 1530 c0 -5 5 -10 11 -10 5 0 7 5 4 10 -3 6 -8 10 -11 10 -2 0
-4 -4 -4 -10z"/>
<path d="M3505 1520 c-4 -6 -11 -7 -17 -4 -13 8 -28 -15 -21 -33 6 -16 55 -17
71 -1 19 19 15 48 -7 48 -11 0 -23 -5 -26 -10z"/>
<path d="M2000 1505 c-6 -8 -10 -19 -8 -24 1 -6 8 1 15 14 13 28 11 31 -7 10z"/>
<path d="M3683 1498 c6 -31 32 -35 47 -8 10 18 8 20 -20 20 -19 0 -29 -5 -27
-12z"/>
<path d="M2260 1460 c-23 -23 -25 -41 -8 -58 24 -24 38 -14 34 23 -3 19 0 35
5 35 5 0 9 5 9 10 0 16 -18 12 -40 -10z"/>
<path d="M3585 1470 c-4 -7 -3 -16 3 -22 14 -14 45 -2 40 15 -6 16 -34 21 -43
7z"/>
<path d="M3656 1461 c-21 -23 -20 -54 3 -82 16 -20 23 -22 47 -14 32 12 56 67
36 87 -8 8 -10 4 -6 -13 4 -23 4 -23 -7 -3 -18 34 -54 46 -73 25z"/>
<path d="M2030 1460 c-23 -7 -23 -8 -3 -9 12 -1 25 4 28 9 3 6 5 10 3 9 -2 -1
-14 -5 -28 -9z"/>
<path d="M2610 1460 c0 -5 7 -7 15 -4 8 4 15 8 15 10 0 2 -7 4 -15 4 -8 0 -15
-4 -15 -10z"/>
<path d="M2800 1450 c-11 -11 -20 -24 -20 -30 0 -20 24 -60 36 -60 8 0 11 -12
7 -38 -5 -34 -2 -39 22 -50 59 -27 104 48 50 84 -13 9 -33 13 -44 9 -13 -4
-26 1 -40 16 -23 25 -27 39 -10 39 5 0 8 4 5 9 -9 14 18 31 42 24 12 -3 22
-11 22 -19 0 -7 5 -16 10 -19 6 -3 10 0 10 7 -1 40 -59 59 -90 28z m85 -141
c-10 -10 -23 -19 -29 -19 -6 0 -5 4 3 9 7 5 11 13 8 18 -3 5 4 10 15 10 19 2
19 1 3 -18z"/>
<path d="M2108 1443 c-31 -38 -15 -83 31 -83 44 0 66 41 42 79 -12 19 -58 22
-73 4z"/>
<path d="M2650 1454 c0 -5 7 -18 15 -28 12 -16 15 -17 15 -4 0 8 -7 21 -15 28
-8 7 -15 9 -15 4z"/>
<path d="M3278 1448 c-8 -21 2 -38 22 -38 23 0 32 13 24 34 -7 19 -40 21 -46
4z"/>
<path d="M3160 1437 c0 -18 32 -47 51 -47 14 1 49 23 49 31 0 3 -15 6 -32 7
-18 2 -37 7 -42 12 -14 14 -26 12 -26 -3z"/>
<path d="M2321 1417 c-17 -31 -11 -61 12 -63 12 -1 13 -1 2 3 -18 5 -20 34 -4
50 6 6 9 17 7 23 -2 7 -10 1 -17 -13z"/>
<path d="M2980 1415 c-6 -8 -10 -20 -7 -27 3 -8 6 -5 6 6 1 14 4 16 15 7 7 -6
21 -9 30 -5 23 9 20 -9 -5 -24 -15 -10 -19 -10 -14 -1 5 7 3 10 -6 7 -8 -3
-13 -11 -11 -18 2 -7 -6 -19 -18 -27 -28 -19 -26 -61 3 -72 35 -13 62 2 63 35
0 16 -3 34 -8 40 -5 7 -2 16 7 24 8 7 15 21 15 31 0 32 -49 49 -70 24z m44 -7
c-3 -4 -9 -8 -15 -8 -5 0 -9 4 -9 8 0 5 7 9 15 9 8 0 12 -4 9 -9z m0 -114 c3
-8 2 -12 -4 -9 -6 3 -10 10 -10 16 0 14 7 11 14 -7z"/>
<path d="M1466 1411 c-11 -18 6 -42 28 -39 29 4 29 42 -1 46 -11 2 -24 -1 -27
-7z"/>
<path d="M3785 1376 c-16 -12 -17 -17 -6 -45 10 -22 20 -31 36 -31 33 0 57 27
49 54 -12 37 -45 47 -79 22z m48 -3 c-7 -2 -19 -2 -25 0 -7 3 -2 5 12 5 14 0
19 -2 13 -5z"/>
<path d="M1990 1366 c0 -2 7 -7 16 -10 8 -3 12 -2 9 4 -6 10 -25 14 -25 6z"/>
<path d="M1965 1350 c-8 -13 3 -30 18 -30 8 0 7 3 -2 9 -7 5 -10 14 -7 20 4 6
5 11 2 11 -3 0 -8 -4 -11 -10z"/>
<path d="M3152 1343 c5 -26 38 -29 38 -4 0 15 -6 21 -21 21 -14 0 -19 -5 -17
-17z"/>
<path d="M1769 1335 c5 -5 12 -25 16 -43 4 -21 12 -32 19 -29 7 3 13 -1 13 -9
0 -18 -12 -18 -31 2 -9 8 -16 11 -16 5 0 -20 37 -32 64 -19 20 9 26 19 26 43
0 18 -6 37 -12 43 -18 14 -89 21 -79 7z"/>
<path d="M3714 1339 c-3 -6 -3 -14 2 -18 13 -9 17 -34 4 -26 -5 3 -10 2 -10
-4 0 -5 5 -13 10 -16 6 -4 8 -11 5 -16 -9 -13 9 -11 23 3 23 23 9 88 -19 88
-4 0 -11 -5 -15 -11z"/>
<path d="M1542 1323 c6 -7 14 -13 19 -13 5 0 9 6 9 13 0 7 -9 13 -19 13 -15 0
-17 -3 -9 -13z"/>
<path d="M1887 1333 c-14 -14 -6 -41 14 -46 22 -6 35 13 25 38 -6 15 -28 20
-39 8z"/>
<path d="M2001 1321 c-13 -24 8 -55 35 -49 23 4 27 49 4 56 -12 4 -13 3 -2
-10 10 -13 10 -17 -4 -22 -23 -9 -23 -8 -18 19 5 30 -1 32 -15 6z"/>
<path d="M2580 1320 c0 -15 5 -20 18 -18 9 2 17 10 17 18 0 8 -8 16 -17 18
-13 2 -18 -3 -18 -18z"/>
<path d="M3623 1318 c-11 -18 -13 -39 -3 -33 4 3 10 -1 13 -9 6 -16 -24 -56
-43 -56 -6 0 -10 -6 -7 -12 3 -8 19 -12 44 -10 29 1 43 -2 47 -13 7 -20 52
-19 60 1 7 17 -10 54 -24 54 -9 0 -80 67 -80 75 0 11 10 4 35 -22 14 -15 25
-22 25 -16 0 13 -39 53 -51 53 -4 0 -11 -6 -16 -12z"/>
<path d="M1580 1309 c0 -5 5 -7 10 -4 6 3 10 8 10 11 0 2 -4 4 -10 4 -5 0 -10
-5 -10 -11z"/>
<path d="M2452 1311 c-11 -7 -10 -9 3 -15 9 -3 13 -11 10 -16 -5 -8 -12 -7
-23 2 -12 10 -14 10 -8 1 5 -9 -1 -13 -20 -13 l-27 0 21 -18 c14 -12 18 -23
12 -32 -5 -8 -7 -17 -4 -22 7 -11 -33 -29 -50 -22 -9 3 -13 11 -9 17 3 6 1 7
-5 3 -8 -5 -12 0 -12 13 0 31 11 51 29 52 10 0 12 2 3 6 -20 8 -42 -17 -42
-48 0 -65 94 -73 106 -9 6 25 9 28 25 19 37 -19 79 24 59 61 -14 27 -44 36
-68 21z"/>
<path d="M3184 1288 l-19 -23 21 18 c15 13 30 16 50 12 22 -5 25 -4 14 4 -24
17 -45 13 -66 -11z"/>
<path d="M3450 1290 c-39 -39 -14 -110 39 -110 46 0 65 22 62 71 -1 24 -7 47
-14 51 -22 14 -67 8 -87 -12z"/>
<path d="M1590 1279 c-13 -23 -6 -54 10 -44 6 4 9 1 8 -6 -4 -18 39 -20 53 -3
9 11 14 10 28 -7 18 -22 45 -18 56 9 5 14 4 15 -6 5 -19 -19 -26 -16 -33 11
-5 19 -11 23 -28 18 -15 -4 -19 -2 -13 8 4 7 2 16 -6 21 -25 15 -58 10 -69
-12z"/>
<path d="M2717 1283 c-11 -11 -8 -75 3 -68 6 3 13 -1 16 -9 10 -25 56 -19 77
10 11 14 16 28 13 31 -3 4 -6 1 -6 -5 0 -6 -11 -19 -25 -28 -23 -15 -25 -14
-51 9 -19 17 -25 32 -21 46 5 22 4 25 -6 14z"/>
<path d="M1730 1270 c0 -5 7 -7 15 -4 8 4 15 8 15 10 0 2 -7 4 -15 4 -8 0 -15
-4 -15 -10z"/>
<path d="M2081 1256 c-10 -11 -7 -17 10 -29 11 -9 18 -20 14 -26 -7 -12 5 -14
29 -5 19 7 21 45 4 62 -16 16 -43 15 -57 -2z"/>
<path d="M2893 1214 c-7 -18 17 -38 31 -24 11 11 1 40 -14 40 -6 0 -13 -7 -17
-16z"/>
<path d="M3012 1223 c-7 -2 -17 -13 -22 -23 -8 -15 -5 -17 31 -16 31 0 38 4
34 16 -4 8 8 2 24 -15 29 -27 33 -28 47 -13 9 9 13 21 10 27 -9 14 -46 15 -46
1 0 -5 -9 -1 -20 10 -20 20 -34 23 -58 13z"/>
<path d="M2679 1193 c-13 -16 -12 -17 4 -4 16 13 21 21 13 21 -2 0 -10 -8 -17
-17z"/>
<path d="M3395 1174 c-23 -23 -2 -49 26 -31 16 10 16 13 4 20 -9 4 -13 12 -10
18 10 14 -2 11 -20 -7z"/>
<path d="M2613 1173 c-19 -7 -16 -51 4 -62 23 -12 53 4 53 29 0 16 -29 42 -42
39 -2 0 -9 -3 -15 -6z"/>
<path d="M2686 1158 c3 -4 11 -5 19 -1 21 7 19 12 -4 10 -11 0 -18 -5 -15 -9z"/>
<path d="M3182 1158 c-20 -20 -14 -65 10 -83 21 -14 23 -14 29 2 4 12 8 7 13
-17 5 -26 2 -38 -9 -46 -13 -10 -13 -13 -2 -17 8 -3 19 -1 24 4 5 5 7 -4 5
-25 -6 -51 21 -86 67 -86 20 0 47 7 59 16 51 35 8 136 -53 124 -54 -10 -63 -8
-68 20 -4 15 -12 34 -20 41 -23 24 -25 43 -4 62 20 17 20 17 -9 17 -17 0 -35
-5 -42 -12z m102 -157 c3 -5 -1 -11 -9 -14 -9 -4 -12 -1 -8 9 6 16 10 17 17 5z
m69 -19 c-4 -10 -2 -13 5 -8 8 5 10 2 6 -8 -8 -20 -14 -20 -30 2 -19 25 -17
41 5 35 13 -3 18 -10 14 -21z"/>
<path d="M3276 1149 c4 -7 14 -20 21 -29 7 -8 19 -24 27 -35 14 -19 15 -20 22
-1 11 29 -17 70 -50 74 -21 3 -26 0 -20 -9z"/>
<path d="M2844 1080 c1 -73 17 -105 49 -98 15 3 14 7 -2 43 -11 25 -15 48 -11
60 9 25 -5 65 -23 65 -10 0 -14 -17 -13 -70z"/>
<path d="M2690 1113 c-46 -58 1 -133 74 -119 26 5 40 15 51 36 17 33 20 54 6
45 -5 -3 -13 0 -17 6 -4 8 -3 9 4 5 22 -14 12 23 -10 38 -36 25 -83 20 -108
-11z m77 -77 c0 -7 -11 -12 -24 -11 -13 0 -23 4 -23 8 0 4 0 11 0 16 0 4 11 6
23 4 13 -3 24 -10 24 -17z"/>
<path d="M3524 1125 c-8 -21 2 -45 19 -45 8 0 20 7 27 15 10 12 10 18 0 30 -7
8 -19 15 -27 15 -7 0 -16 -7 -19 -15z"/>
<path d="M1956 1098 c-51 -72 44 -137 97 -67 17 24 18 30 6 55 -19 40 -79 47
-103 12z m96 -53 c-4 -6 -8 -2 -10 7 -2 11 -9 15 -19 11 -13 -5 -13 -3 -2 15
l14 22 11 -23 c7 -12 9 -26 6 -32z"/>
<path d="M2470 1112 c0 -12 19 -26 26 -19 2 2 -2 10 -11 17 -9 8 -15 8 -15 2z"/>
<path d="M1861 1096 c-9 -11 -8 -18 4 -30 9 -9 21 -13 27 -10 7 4 4 10 -6 16
-25 14 -19 29 9 24 14 -3 23 -1 20 5 -9 14 -41 11 -54 -5z"/>
<path d="M3442 1100 c7 -20 -10 -52 -24 -44 -6 4 -9 1 -6 -7 9 -26 37 -22 48
7 9 22 8 31 -6 43 -14 14 -16 14 -12 1z"/>
<path d="M2366 1084 c-19 -18 -21 -45 -4 -62 15 -15 32 -16 23 -2 -3 6 1 10
10 10 9 0 13 5 9 11 -3 6 -1 15 6 19 16 10 6 40 -14 40 -8 0 -22 -7 -30 -16z"/>
<path d="M2467 1052 c-23 -25 -21 -49 4 -62 25 -14 27 -12 38 28 6 20 5 34 -2
41 -15 15 -21 14 -40 -7z"/>
<path d="M3015 1060 c-4 -7 -3 -16 3 -22 14 -14 45 -2 40 15 -6 16 -34 21 -43
7z"/>
<path d="M2148 1049 c-22 -12 -23 -42 -3 -59 18 -15 51 -8 46 11 -2 8 -5 23
-6 33 -2 24 -14 29 -37 15z"/>
<path d="M2588 1039 c-32 -18 -17 -79 19 -79 9 0 10 6 3 25 -7 18 -5 28 5 39
8 8 15 17 15 20 0 9 -23 6 -42 -5z"/>
<path d="M3060 1024 c0 -6 9 -19 19 -28 16 -15 18 -22 8 -37 -30 -48 40 -113
83 -74 11 10 20 24 20 31 0 22 -33 54 -54 54 -17 0 -16 3 8 25 29 27 36 47 9
23 -26 -21 -70 -21 -82 0 -6 9 -11 12 -11 6z"/>
<path d="M2643 916 c-15 -13 -26 -26 -23 -28 3 -2 18 9 34 24 35 34 27 37 -11
4z"/>
<path d="M2456 913 c-6 -14 -5 -15 5 -6 7 7 10 15 7 18 -3 3 -9 -2 -12 -12z"/>
<path d="M2511 913 c7 -12 15 -20 18 -17 3 2 -3 12 -13 22 -17 16 -18 16 -5
-5z"/>
<path d="M2696 919 c19 -31 7 -69 -26 -82 -13 -5 -13 -6 1 -6 8 -1 25 8 37 20
12 11 27 17 32 14 5 -3 7 0 4 8 -6 18 21 41 40 34 10 -4 13 -1 9 9 -7 19 -50
18 -61 -2 -8 -15 -10 -15 -15 0 -4 9 -11 16 -17 16 -6 0 -8 -5 -4 -11z"/>
<path d="M2555 907 c-23 -17 -14 -47 15 -47 26 0 37 27 18 46 -12 12 -17 12
-33 1z m27 -21 c7 4 8 2 4 -5 -9 -13 -26 -5 -25 12 0 9 2 8 6 -1 2 -6 10 -9
15 -6z"/>
</g>
</svg>
